<?xml version="1.0" encoding="UTF-8" standalone="no"?>
<!DOCTYPE svg PUBLIC "-//W3C//DTD SVG 1.1//EN"
 "http://www.w3.org/Graphics/SVG/1.1/DTD/svg11.dtd">
<!-- Generated by graphviz version 2.38.0 (20140413.2041)
 -->
<!-- Title: Guaranteed Pages: 1 -->
<svg width="314pt" height="134pt"
 viewBox="0.00 0.00 314.00 133.74" xmlns="http://www.w3.org/2000/svg" xmlns:xlink="http://www.w3.org/1999/xlink">
<g id="graph0" class="graph" transform="scale(1 1) rotate(0) translate(4 129.74)">
<title>Guaranteed</title>
<polygon fill="white" stroke="none" points="-4,4 -4,-129.74 310,-129.74 310,4 -4,4"/>
<!-- s1 -->
<g id="node1" class="node"><title>s1</title>
<ellipse fill="none" stroke="blue" cx="27" cy="-62.8701" rx="27" ry="26.7407"/>
<text text-anchor="middle" x="27" y="-66.6701" font-family="Times New Roman,serif" font-size="14.00">s1</text>
<text text-anchor="middle" x="27" y="-51.6701" font-family="Times New Roman,serif" font-size="14.00">[1]</text>
</g>
<!-- b1 -->
<g id="node2" class="node"><title>b1</title>
<ellipse fill="none" stroke="green" cx="161" cy="-62.8701" rx="27" ry="26.7407"/>
<text text-anchor="middle" x="161" y="-66.6701" font-family="Times New Roman,serif" font-size="14.00">b1</text>
<text text-anchor="middle" x="161" y="-51.6701" font-family="Times New Roman,serif" font-size="14.00">[2]</text>
</g>
<!-- s1&#45;&gt;b1 -->
<g id="edge3" class="edge"><title>s1&#45;&gt;b1</title>
<path fill="none" stroke="black" d="M54.079,-62.8701C74.0565,-62.8701 101.851,-62.8701 123.955,-62.8701"/>
<polygon fill="black" stroke="black" points="123.975,-66.3702 133.975,-62.8701 123.975,-59.3702 123.975,-66.3702"/>
<text text-anchor="middle" x="94" y="-66.6701" font-family="Times New Roman,serif" font-size="14.00">Original</text>
</g>
<!-- b2 -->
<g id="node3" class="node"><title>b2</title>
<ellipse fill="none" stroke="green" cx="279" cy="-98.8701" rx="27" ry="26.7407"/>
<text text-anchor="middle" x="279" y="-102.67" font-family="Times New Roman,serif" font-size="14.00">b2</text>
<text text-anchor="middle" x="279" y="-87.6701" font-family="Times New Roman,serif" font-size="14.00">[1]</text>
</g>
<!-- b1&#45;&gt;b2 -->
<g id="edge2" class="edge"><title>b1&#45;&gt;b2</title>
<path fill="none" stroke="black" stroke-dasharray="1,5" d="M186.885,-70.593C203.286,-75.6831 225.001,-82.4222 243.118,-88.0446"/>
<polygon fill="black" stroke="black" points="242.168,-91.4144 252.756,-91.0357 244.243,-84.7289 242.168,-91.4144"/>
<text text-anchor="middle" x="220" y="-88.6701" font-family="Times New Roman,serif" font-size="14.00">Odd</text>
</g>
<!-- b3 -->
<g id="node4" class="node"><title>b3</title>
<ellipse fill="none" stroke="green" cx="279" cy="-26.8701" rx="27" ry="26.7407"/>
<text text-anchor="middle" x="279" y="-30.6701" font-family="Times New Roman,serif" font-size="14.00">b3</text>
<text text-anchor="middle" x="279" y="-15.6701" font-family="Times New Roman,serif" font-size="14.00">[1]</text>
</g>
<!-- b1&#45;&gt;b3 -->
<g id="edge1" class="edge"><title>b1&#45;&gt;b3</title>
<path fill="none" stroke="black" stroke-dasharray="1,5" d="M186.885,-55.1472C203.286,-50.057 225.001,-43.3179 243.118,-37.6955"/>
<polygon fill="black" stroke="black" points="244.243,-41.0112 252.756,-34.7044 242.168,-34.3257 244.243,-41.0112"/>
<text text-anchor="middle" x="220" y="-53.6701" font-family="Times New Roman,serif" font-size="14.00">Even</text>
</g>
</g>
</svg>
