<?xml version="1.0" encoding="UTF-8" standalone="no"?>
<!DOCTYPE svg PUBLIC "-//W3C//DTD SVG 1.1//EN"
 "http://www.w3.org/Graphics/SVG/1.1/DTD/svg11.dtd">
<!-- Generated by graphviz version 2.38.0 (20140413.2041)
 -->
<!-- Title: ReliableWordCount Pages: 1 -->
<svg width="686pt" height="62pt"
 viewBox="0.00 0.00 686.19 61.74" xmlns="http://www.w3.org/2000/svg" xmlns:xlink="http://www.w3.org/1999/xlink">
<g id="graph0" class="graph" transform="scale(1 1) rotate(0) translate(4 57.7401)">
<title>ReliableWordCount</title>
<polygon fill="white" stroke="none" points="-4,4 -4,-57.7401 682.193,-57.7401 682.193,4 -4,4"/>
<!-- sentencesSpout -->
<g id="node1" class="node"><title>sentencesSpout</title>
<ellipse fill="none" stroke="blue" cx="73.5391" cy="-26.8701" rx="73.5782" ry="26.7407"/>
<text text-anchor="middle" x="73.5391" y="-30.6701" font-family="Times New Roman,serif" font-size="14.00">sentencesSpout</text>
<text text-anchor="middle" x="73.5391" y="-15.6701" font-family="Times New Roman,serif" font-size="14.00">[4]</text>
</g>
<!-- splitBolt -->
<g id="node4" class="node"><title>splitBolt</title>
<ellipse fill="none" stroke="green" cx="278.626" cy="-26.8701" rx="44.5955" ry="26.7407"/>
<text text-anchor="middle" x="278.626" y="-30.6701" font-family="Times New Roman,serif" font-size="14.00">splitBolt</text>
<text text-anchor="middle" x="278.626" y="-15.6701" font-family="Times New Roman,serif" font-size="14.00">[4]</text>
</g>
<!-- sentencesSpout&#45;&gt;splitBolt -->
<g id="edge2" class="edge"><title>sentencesSpout&#45;&gt;splitBolt</title>
<path fill="none" stroke="springgreen" d="M147.284,-26.8701C172.566,-26.8701 200.444,-26.8701 223.907,-26.8701"/>
<polygon fill="springgreen" stroke="springgreen" points="224.011,-30.3702 234.011,-26.8701 224.011,-23.3702 224.011,-30.3702"/>
<text text-anchor="start" x="165.078" y="-30.6701" font-family="Times New Roman,serif" font-size="14.00" fill="springgreen">Sentence</text>
</g>
<!-- countBolt -->
<g id="node2" class="node"><title>countBolt</title>
<ellipse fill="none" stroke="green" cx="443.378" cy="-26.8701" rx="50.41" ry="26.7407"/>
<text text-anchor="middle" x="443.378" y="-30.6701" font-family="Times New Roman,serif" font-size="14.00">countBolt</text>
<text text-anchor="middle" x="443.378" y="-15.6701" font-family="Times New Roman,serif" font-size="14.00">[4]</text>
</g>
<!-- logBolt -->
<g id="node3" class="node"><title>logBolt</title>
<ellipse fill="none" stroke="green" cx="637.888" cy="-26.8701" rx="40.1111" ry="26.7407"/>
<text text-anchor="middle" x="637.888" y="-30.6701" font-family="Times New Roman,serif" font-size="14.00">logBolt</text>
<text text-anchor="middle" x="637.888" y="-15.6701" font-family="Times New Roman,serif" font-size="14.00">[2]</text>
</g>
<!-- countBolt&#45;&gt;logBolt -->
<g id="edge1" class="edge"><title>countBolt&#45;&gt;logBolt</title>
<path fill="none" stroke="maroon" stroke-dasharray="5,2" d="M493.954,-26.8701C522.629,-26.8701 558.596,-26.8701 587.276,-26.8701"/>
<polygon fill="maroon" stroke="maroon" points="587.486,-30.3702 597.486,-26.8701 587.486,-23.3702 587.486,-30.3702"/>
<text text-anchor="start" x="511.583" y="-30.6701" font-family="Times New Roman,serif" font-size="14.00" fill="maroon">WordCount</text>
</g>
<!-- splitBolt&#45;&gt;countBolt -->
<g id="edge3" class="edge"><title>splitBolt&#45;&gt;countBolt</title>
<path fill="none" stroke="dodgerblue" d="M323.241,-26.8701C341.522,-26.8701 363.071,-26.8701 382.779,-26.8701"/>
<polygon fill="dodgerblue" stroke="dodgerblue" points="382.891,-30.3702 392.891,-26.8701 382.891,-23.3702 382.891,-30.3702"/>
<text text-anchor="start" x="341.174" y="-30.6701" font-family="Times New Roman,serif" font-size="14.00" fill="dodgerblue">Word</text>
</g>
</g>
</svg>
